<svg width="16" height="16" viewBox="0 0 16 16" fill="none" xmlns="http://www.w3.org/2000/svg">
<g clip-path="url(#clip0_1_10)">
<g clip-path="url(#clip1_1_10)">
<path d="M0 8C0 10.1217 0.842855 12.1566 2.34315 13.6569C3.84344 15.1571 5.87827 16 8 16C10.1217 16 12.1566 15.1571 13.6569 13.6569C15.1571 12.1566 16 10.1217 16 8C16 5.87827 15.1571 3.84344 13.6569 2.34315C12.1566 0.842855 10.1217 0 8 0C5.87827 0 3.84344 0.842855 2.34315 2.34315C0.842855 3.84344 0 5.87827 0 8Z" fill="url(#paint0_linear_1_10)"/>
</g>
<path d="M3.15643 10.0795C2.83825 10.0795 2.55735 9.99917 2.31374 9.83842C2.07013 9.67602 1.87956 9.44732 1.74201 9.15234C1.60446 8.85571 1.53569 8.50521 1.53569 8.10085C1.53569 7.69981 1.60446 7.3518 1.74201 7.05682C1.87956 6.76184 2.07096 6.53397 2.31623 6.37322C2.56149 6.21248 2.84487 6.1321 3.16637 6.1321C3.41495 6.1321 3.61133 6.17353 3.7555 6.25639C3.90134 6.33759 4.01237 6.4304 4.0886 6.5348C4.16649 6.63755 4.22698 6.72206 4.27006 6.78835H4.31978V4.90909H4.90643V10H4.33967V9.41335H4.27006C4.22698 9.48295 4.16566 9.57079 4.08612 9.67685C4.00657 9.78125 3.89305 9.87488 3.74556 9.95774C3.59807 10.0389 3.40169 10.0795 3.15643 10.0795ZM3.23597 9.55256C3.4713 9.55256 3.67016 9.49124 3.83256 9.36861C3.99497 9.24432 4.11843 9.0728 4.20295 8.85405C4.28746 8.63364 4.32972 8.37926 4.32972 8.09091C4.32972 7.80587 4.28829 7.55646 4.20543 7.34268C4.12257 7.12725 3.99994 6.95987 3.83754 6.84055C3.67513 6.71958 3.47461 6.65909 3.23597 6.65909C2.98739 6.65909 2.78024 6.72289 2.61452 6.8505C2.45046 6.97644 2.327 7.14796 2.24414 7.36506C2.16294 7.58049 2.12234 7.82244 2.12234 8.09091C2.12234 8.36269 2.16377 8.60961 2.24663 8.83168C2.33114 9.05208 2.45543 9.22775 2.6195 9.35866C2.78522 9.48793 2.99071 9.55256 3.23597 9.55256ZM7.72283 6.18182V6.67898H5.74414V6.18182H7.72283ZM6.32085 5.26705H6.90749V8.90625C6.90749 9.07197 6.93152 9.19626 6.97958 9.27912C7.0293 9.36032 7.09227 9.41501 7.1685 9.44318C7.24639 9.4697 7.32842 9.48295 7.4146 9.48295C7.47923 9.48295 7.53226 9.47964 7.57369 9.47301C7.61512 9.46473 7.64826 9.4581 7.67312 9.45312L7.79244 9.98011C7.75266 9.99503 7.69715 10.0099 7.62589 10.0249C7.55463 10.0414 7.46431 10.0497 7.35494 10.0497C7.18922 10.0497 7.02681 10.0141 6.86772 9.94283C6.71029 9.87157 6.57937 9.76302 6.47496 9.61719C6.37222 9.47135 6.32085 9.28741 6.32085 9.06534V5.26705ZM8.60529 10V6.18182H9.17205V6.75852H9.21183C9.28143 6.5696 9.40737 6.41631 9.58967 6.29865C9.77196 6.18099 9.97745 6.12216 10.2061 6.12216C10.2492 6.12216 10.3031 6.12299 10.3677 6.12464C10.4324 6.1263 10.4812 6.12879 10.5144 6.1321V6.72869C10.4945 6.72372 10.4489 6.71626 10.3777 6.70632C10.3081 6.69472 10.2343 6.68892 10.1564 6.68892C9.97082 6.68892 9.8051 6.72786 9.65927 6.80575C9.51509 6.88198 9.40075 6.98804 9.31623 7.12393C9.23337 7.25817 9.19194 7.41146 9.19194 7.58381V10H8.60529ZM12.6348 11.5114C12.3514 11.5114 12.1078 11.4749 11.9039 11.402C11.7001 11.3307 11.5302 11.2363 11.3944 11.1186C11.2601 11.0026 11.1532 10.8783 11.0737 10.7457L11.541 10.4176C11.594 10.4872 11.6612 10.5668 11.7424 10.6562C11.8236 10.7474 11.9346 10.8261 12.0755 10.8924C12.218 10.9603 12.4044 10.9943 12.6348 10.9943C12.943 10.9943 13.1974 10.9197 13.3979 10.7706C13.5984 10.6214 13.6987 10.3878 13.6987 10.0696V9.29403H13.649C13.6059 9.36364 13.5446 9.44981 13.465 9.55256C13.3871 9.65365 13.2744 9.74396 13.127 9.82351C12.9811 9.9014 12.7839 9.94034 12.5353 9.94034C12.2271 9.94034 11.9503 9.86742 11.7051 9.72159C11.4615 9.57576 11.2684 9.36364 11.1259 9.08523C10.985 8.80682 10.9146 8.46875 10.9146 8.07102C10.9146 7.67992 10.9834 7.33937 11.1209 7.04936C11.2585 6.75769 11.4499 6.53232 11.6951 6.37322C11.9404 6.21248 12.2238 6.1321 12.5453 6.1321C12.7939 6.1321 12.9911 6.17353 13.1369 6.25639C13.2844 6.33759 13.3971 6.4304 13.475 6.5348C13.5545 6.63755 13.6158 6.72206 13.6589 6.78835H13.7186V6.18182H14.2853V10.1094C14.2853 10.4375 14.2108 10.7043 14.0616 10.9098C13.9141 11.117 13.7153 11.2686 13.465 11.3647C13.2164 11.4625 12.9397 11.5114 12.6348 11.5114ZM12.6149 9.41335C12.8502 9.41335 13.0491 9.35949 13.2115 9.25178C13.3739 9.14406 13.4973 8.98911 13.5819 8.78693C13.6664 8.58475 13.7086 8.3428 13.7086 8.06108C13.7086 7.78598 13.6672 7.54321 13.5843 7.33274C13.5015 7.12228 13.3788 6.95739 13.2164 6.83807C13.054 6.71875 12.8535 6.65909 12.6149 6.65909C12.3663 6.65909 12.1592 6.72206 11.9934 6.84801C11.8294 6.97396 11.7059 7.14299 11.623 7.35511C11.5418 7.56723 11.5012 7.80256 11.5012 8.06108C11.5012 8.32623 11.5427 8.56072 11.6255 8.76456C11.71 8.96674 11.8343 9.12583 11.9984 9.24183C12.1641 9.35618 12.3696 9.41335 12.6149 9.41335Z" fill="#8A84A2"/>
</g>
<defs>
<linearGradient id="paint0_linear_1_10" x1="0" y1="0" x2="0" y2="16" gradientUnits="userSpaceOnUse">
<stop stop-color="#FDE6DD"/>
<stop offset="1" stop-color="#CFD8DC"/>
</linearGradient>
<clipPath id="clip0_1_10">
<rect width="16" height="16" fill="white"/>
</clipPath>
<clipPath id="clip1_1_10">
<rect width="16" height="16" fill="white"/>
</clipPath>
</defs>
</svg>
