<svg width="320" height="320" viewBox="0 0 320 320" fill="none" xmlns="http://www.w3.org/2000/svg">
<g clip-path="url(#clip0_1_4)">
<g clip-path="url(#clip1_1_4)">
<path d="M0 160C0 202.435 16.8571 243.131 46.8629 273.137C76.8687 303.143 117.565 320 160 320C202.435 320 243.131 303.143 273.137 273.137C303.143 243.131 320 202.435 320 160C320 117.565 303.143 76.8687 273.137 46.8629C243.131 16.8571 202.435 0 160 0C117.565 0 76.8687 16.8571 46.8629 46.8629C16.8571 76.8687 0 117.565 0 160Z" fill="url(#paint0_linear_1_4)"/>
</g>
<path d="M60.4608 197.869C53.9153 197.869 48.1369 196.216 43.1256 192.909C38.1142 189.568 34.1938 184.864 31.3642 178.796C28.5347 172.693 27.1199 165.483 27.1199 157.165C27.1199 148.915 28.5347 141.756 31.3642 135.688C34.1938 129.619 38.1313 124.932 43.1767 121.625C48.2222 118.318 54.0517 116.665 60.6653 116.665C65.779 116.665 69.8188 117.517 72.7847 119.222C75.7847 120.892 78.0688 122.801 79.6369 124.949C81.2392 127.063 82.4835 128.801 83.3699 130.165H84.3926V91.5058H96.4608V196.233H84.8017V184.165H83.3699C82.4835 185.597 81.2222 187.404 79.5858 189.585C77.9494 191.733 75.6142 193.659 72.5801 195.364C69.546 197.034 65.5063 197.869 60.4608 197.869ZM62.0972 187.029C66.9381 187.029 71.029 185.767 74.3699 183.244C77.7108 180.688 80.2506 177.159 81.9892 172.659C83.7278 168.125 84.5972 162.892 84.5972 156.96C84.5972 151.097 83.7449 145.966 82.0404 141.568C80.3358 137.137 77.8131 133.693 74.4722 131.239C71.1313 128.75 67.0063 127.506 62.0972 127.506C56.9835 127.506 52.7222 128.818 49.3131 131.443C45.9381 134.034 43.3983 137.563 41.6938 142.029C40.0233 146.46 39.1881 151.438 39.1881 156.96C39.1881 162.551 40.0403 167.631 41.7449 172.199C43.4835 176.733 46.0403 180.347 49.4153 183.04C52.8244 185.699 57.0517 187.029 62.0972 187.029ZM154.398 117.688V127.915H113.694V117.688H154.398ZM125.557 98.8695H137.626V173.733C137.626 177.142 138.12 179.699 139.109 181.404C140.131 183.074 141.427 184.199 142.995 184.779C144.597 185.324 146.285 185.597 148.057 185.597C149.387 185.597 150.478 185.529 151.33 185.392C152.182 185.222 152.864 185.085 153.376 184.983L155.83 195.824C155.012 196.131 153.87 196.438 152.404 196.744C150.938 197.085 149.08 197.256 146.83 197.256C143.421 197.256 140.08 196.523 136.807 195.057C133.569 193.591 130.876 191.358 128.728 188.358C126.614 185.358 125.557 181.574 125.557 177.006V98.8695ZM172.552 196.233V117.688H184.211V129.551H185.029C186.461 125.665 189.052 122.512 192.802 120.091C196.552 117.671 200.779 116.46 205.484 116.46C206.37 116.46 207.478 116.477 208.807 116.511C210.137 116.546 211.143 116.597 211.824 116.665V128.938C211.415 128.835 210.478 128.682 209.012 128.477C207.58 128.239 206.063 128.119 204.461 128.119C200.643 128.119 197.234 128.921 194.234 130.523C191.268 132.091 188.915 134.273 187.177 137.068C185.472 139.83 184.62 142.983 184.62 146.529V196.233H172.552ZM255.444 227.324C249.614 227.324 244.603 226.574 240.41 225.074C236.216 223.608 232.722 221.665 229.927 219.244C227.165 216.858 224.966 214.301 223.33 211.574L232.944 204.824C234.035 206.256 235.415 207.892 237.086 209.733C238.756 211.608 241.04 213.227 243.938 214.591C246.87 215.989 250.705 216.688 255.444 216.688C261.785 216.688 267.018 215.154 271.143 212.085C275.268 209.017 277.33 204.21 277.33 197.665V181.71H276.307C275.421 183.142 274.16 184.915 272.523 187.029C270.921 189.108 268.603 190.966 265.569 192.602C262.569 194.205 258.512 195.006 253.398 195.006C247.057 195.006 241.364 193.506 236.319 190.506C231.307 187.506 227.336 183.142 224.404 177.415C221.506 171.688 220.057 164.733 220.057 156.551C220.057 148.506 221.472 141.5 224.302 135.534C227.131 129.534 231.069 124.898 236.114 121.625C241.16 118.318 246.989 116.665 253.603 116.665C258.716 116.665 262.773 117.517 265.773 119.222C268.807 120.892 271.126 122.801 272.728 124.949C274.364 127.063 275.626 128.801 276.512 130.165H277.739V117.688H289.398V198.483C289.398 205.233 287.864 210.722 284.796 214.949C281.762 219.21 277.671 222.33 272.523 224.307C267.41 226.318 261.716 227.324 255.444 227.324ZM255.035 184.165C259.876 184.165 263.966 183.057 267.307 180.841C270.648 178.625 273.188 175.438 274.927 171.279C276.665 167.119 277.535 162.142 277.535 156.347C277.535 150.688 276.682 145.693 274.978 141.364C273.273 137.034 270.751 133.642 267.41 131.188C264.069 128.733 259.944 127.506 255.035 127.506C249.921 127.506 245.66 128.801 242.251 131.392C238.876 133.983 236.336 137.46 234.631 141.824C232.961 146.188 232.126 151.029 232.126 156.347C232.126 161.801 232.978 166.625 234.682 170.818C236.421 174.977 238.978 178.25 242.353 180.637C245.762 182.989 249.989 184.165 255.035 184.165Z" fill="#8A84A2"/>
</g>
<defs>
<linearGradient id="paint0_linear_1_4" x1="0" y1="0" x2="0" y2="320" gradientUnits="userSpaceOnUse">
<stop stop-color="#FDE6DD"/>
<stop offset="1" stop-color="#CFD8DC"/>
</linearGradient>
<clipPath id="clip0_1_4">
<rect width="320" height="320" fill="white"/>
</clipPath>
<clipPath id="clip1_1_4">
<rect width="320" height="320" fill="white"/>
</clipPath>
</defs>
</svg>
