<svg height="320" version="1.1" width="320" xmlns="http://www.w3.org/2000/svg" xmlns:xlink="http://www.w3.org/1999/xlink" style="overflow: hidden; position: relative; left: -0.5px; top: -0.799988px;" viewBox="0 0 320 320" preserveAspectRatio="xMidYMid meet" id="main_svg"><svg height="320" version="1.1" width="320" xmlns="http://www.w3.org/2000/svg" xmlns:xlink="http://www.w3.org/1999/xlink" style="overflow: hidden; position: relative;" viewBox="0 0 160 160" preserveAspectRatio="xMidYMid meet" id="imported_svg_layer_1"><path style="opacity: 1; fill-opacity: 1;" fill="url(#o3ut8270-_FDE6DD-_CFD8DC)" stroke="none" d="M0,80A80,80,0,1,0,160,80A80,80,0,1,0,0,80" stroke-width="0" opacity="1" fill-opacity="1" transform="matrix(1,0,0,1,0,0)"></path><desc>Created with Logotizer</desc><defs><linearGradient id="o3ut8270-_FDE6DD-_CFD8DC" x1="1.8369701987210297e-16" y1="0" x2="0" y2="1"><stop offset="0%" stop-color="#fde6dd" stop-opacity="1"></stop><stop offset="100%" stop-color="#cfd8dc" stop-opacity="1"></stop></linearGradient></defs></svg><svg height="320" version="1.1" width="320" xmlns="http://www.w3.org/2000/svg" xmlns:xlink="http://www.w3.org/1999/xlink" style="overflow: hidden; position: relative;" viewBox="0 0 160 160" preserveAspectRatio="xMidYMid meet" id="imported_svg_layer_2"><desc>Created with Logotizer</desc><defs><linearGradient id="7931u270-_ffffff-_e8a7a7" x1="1.8369701987210297e-16" y1="0" x2="0" y2="1"><stop offset="0%" stop-color="#ffffff" stop-opacity="1"></stop><stop offset="100%" stop-color="#e8a7a7" stop-opacity="1"></stop></linearGradient></defs><path style="opacity: 1; fill-opacity: 1; display: none; cursor: move;" fill="url(#7931u270-_ffffff-_e8a7a7)" stroke="#d5d5d5" d="M132.1,24H27.9C23.5,24,20,27.5,20,31.9V128.1C20,132.5,23.6,136,27.9,136H132.1C136.5,136,140,132.5,140,128.1V31.9C140,27.5,136.4,24,132.1,24ZM121,94H94V121C94,122.7,92.7,124,91,124H70C68.3,124,67,122.7,67,121V94H40C38.3,94,37,92.7,37,91V70C37,68.3,38.3,67,40,67H67V40C67,38.3,68.3,37,70,37H91C92.7,37,94,38.3,94,40V67H121C122.7,67,124,68.3,124,70V91C124,92.7,122.7,94,121,94Z" stroke-width="2" opacity="1" fill-opacity="1" transform="matrix(1,0,0,1,0,0)"></path></svg><desc>Created with Logotizer</desc><defs></defs><text style="text-anchor: middle; font-family: arimo_bold; font-size: 240px; cursor: move;" x="0" y="0" text-anchor="middle" font-family="arimo_bold" font-size="240px" stroke="none" fill="#8a84a2" transform="matrix(0.6,0,0,0.6,160,201.2331)"><tspan dy="0">dtrg</tspan></text></svg>